<svg xmlns="http://www.w3.org/2000/svg" width="48" height="48" viewBox="0 0 48 48"><defs><style>.cls-1{fill:#f1f2f2;}.cls-2{fill:#f6b445;}.cls-3{fill:#fed049;}.cls-4{fill:#49aaee;}.cls-5{fill:none;stroke:#474c54;stroke-linecap:round;stroke-linejoin:round;stroke-width:2px;}</style></defs><title>35-Email</title><g id="_35-Email" data-name="35-Email"><path class="cls-1" d="M41,19,24,30,7,19V2A.979.979,0,0,1,8,1H40a.979.979,0,0,1,1,1Z"/><polygon class="cls-2" points="7 13.91 7 19 1 15 7 9 7 13.91"/><polygon class="cls-2" points="47 15 41 19 41 13.95 41 9 47 15"/><path class="cls-3" d="M41,18.91,47,15V43a4.025,4.025,0,0,1-1.17,2.83L39,39,28,28l-.28-.43Z"/><path class="cls-2" d="M39,39l6.83,6.83A4.025,4.025,0,0,1,43,47H5a4.025,4.025,0,0,1-2.83-1.17L9,39,20,28l.28-.43L24,30l3.72-2.43L28,28Z"/><path class="cls-3" d="M20.28,27.57,20,28,9,39,2.17,45.83A4.025,4.025,0,0,1,1,43V15Z"/><circle class="cls-4" cx="35" cy="13" r="12"/><line class="cls-5" x1="7" y1="18.913" x2="24" y2="30"/><path class="cls-5" d="M47,25V43a4,4,0,0,1-4,4H5a4,4,0,0,1-4-4V15"/><line class="cls-5" x1="9" y1="39" x2="20" y2="28"/><path class="cls-5" d="M7,14V2A.979.979,0,0,1,8,1H24"/><line class="cls-5" x1="6.906" y1="9.094" x2="1" y2="15"/><circle class="cls-5" cx="35" cy="13" r="12"/><polyline class="cls-5" points="32 11 35 9 35 18"/></g></svg>